HIERARCHY
ROOT reference
{
  OFFSET 0 0 0
  CHANNELS 6 Xposition Yposition Zposition Zrotation Xrotation Yrotation
  JOINT Hips
  {
    OFFSET 44.6805 85.9651 -20.1189
    CHANNELS 3 Zrotation Xrotation Yrotation
    JOINT RightUpLeg
    {
      OFFSET -9.20028 -1.61905 0.0313892
      CHANNELS 3 Zrotation Xrotation Yrotation
      JOINT RightLeg
      {
        OFFSET 0.0920446 -41.8676 0.113709
        CHANNELS 3 Zrotation Xrotation Yrotation
        JOINT RightFoot
        {
          OFFSET -0.78009 -42.2818 -0.985537
          CHANNELS 3 Zrotation Xrotation Yrotation
          End Site
          {
            OFFSET 0 -7.69 17.5
          }
        }
      }
    }
    JOINT LeftUpLeg
    {
      OFFSET 9.33559 -1.63058 -0.0435578
      CHANNELS 3 Zrotation Xrotation Yrotation
      JOINT LeftLeg
      {
        OFFSET 0.124601 -41.8685 -0.0153308
        CHANNELS 3 Zrotation Xrotation Yrotation
        JOINT LeftFoot
        {
          OFFSET -0.885525 -42.178 -0.480441
          CHANNELS 3 Zrotation Xrotation Yrotation
          End Site
          {
            OFFSET 0 -7.69 17.5
          }
        }
      }
    }
    JOINT Spine
    {
      OFFSET -0.030151 14.2977 0.0632059
      CHANNELS 3 Zrotation Xrotation Yrotation
      JOINT Spine1
      {
        OFFSET -0.0449239 9.71163 -4.69081e-05
        CHANNELS 3 Zrotation Xrotation Yrotation
        JOINT Spine2
        {
          OFFSET 0.0275009 10.1133 -0.0283136
          CHANNELS 3 Zrotation Xrotation Yrotation
          JOINT Spine3
          {
            OFFSET 0.0288761 9.7229 -0.000806902
            CHANNELS 3 Zrotation Xrotation Yrotation
            JOINT Neck
            {
              OFFSET -0.0518603 10.2949 0.241895
              CHANNELS 3 Zrotation Xrotation Yrotation
              JOINT Head
              {
                OFFSET -0.275401 9.55953 0.0709142
                CHANNELS 3 Zrotation Xrotation Yrotation
                End Site
                {
                  OFFSET 0 15.95 0
                }
              }
            }
            JOINT RightShoulder
            {
              OFFSET -3.17286 6.95881 0.00543218
              CHANNELS 3 Zrotation Xrotation Yrotation
              JOINT RightArm
              {
                OFFSET -12.7612 0.039846 0.0411956
                CHANNELS 3 Zrotation Xrotation Yrotation
                JOINT RightForeArm
                {
                  OFFSET -26.5517 0.0729849 0.08211
                  CHANNELS 3 Zrotation Xrotation Yrotation
                  JOINT RightHand
                  {
                    OFFSET -26.0042 -0.0197864 0.0403594
                    CHANNELS 3 Zrotation Xrotation Yrotation
                    JOINT RightHandThumb1
                    {
                      OFFSET -2.48905 0.190105 3.12053
                      CHANNELS 3 Zrotation Xrotation Yrotation
                      JOINT RightHandThumb2
                      {
                        OFFSET -3.68274 0 0
                        CHANNELS 3 Zrotation Xrotation Yrotation
                        JOINT RightHandThumb3
                        {
                          OFFSET -2.55832 0 0
                          CHANNELS 3 Zrotation Xrotation Yrotation
                          End Site
                          {
                            OFFSET -2.194 0 0
                          }
                        }
                      }
                    }
                    JOINT RightInHandIndex
                    {
                      OFFSET -3.22368 0.508421 1.97842
                      CHANNELS 3 Zrotation Xrotation Yrotation
                      JOINT RightHandIndex1
                      {
                        OFFSET -5.21684 -0.091368 0.999158
                        CHANNELS 3 Zrotation Xrotation Yrotation
                        JOINT RightHandIndex2
                        {
                          OFFSET -3.61937 0 0
                          CHANNELS 3 Zrotation Xrotation Yrotation
                          JOINT RightHandIndex3
                          {
                            OFFSET -2.0521 0 0
                            CHANNELS 3 Zrotation Xrotation Yrotation
                            End Site
                            {
                              OFFSET -1.805 0 0
                            }
                          }
                        }
                      }
                    }
                    JOINT RightInHandMiddle
                    {
                      OFFSET -3.38211 0.517263 0.756737
                      CHANNELS 3 Zrotation Xrotation Yrotation
                      JOINT RightHandMiddle1
                      {
                        OFFSET -5.17411 -0.084 0.313895
                        CHANNELS 3 Zrotation Xrotation Yrotation
                        JOINT RightHandMiddle2
                        {
                          OFFSET -3.94947 0 0
                          CHANNELS 3 Zrotation Xrotation Yrotation
                          JOINT RightHandMiddle3
                          {
                            OFFSET -2.47579 0 0
                            CHANNELS 3 Zrotation Xrotation Yrotation
                            End Site
                            {
                              OFFSET -1.975 0 0
                            }
                          }
                        }
                      }
                    }
                    JOINT RightInHandRing
                    {
                      OFFSET -3.36516 0.537895 -0.128947
                      CHANNELS 3 Zrotation Xrotation Yrotation
                      JOINT RightHandRing1
                      {
                        OFFSET -4.63474 -0.022105 -0.478947
                        CHANNELS 3 Zrotation Xrotation Yrotation
                        JOINT RightHandRing2
                        {
                          OFFSET -3.44238 0 0
                          CHANNELS 3 Zrotation Xrotation Yrotation
                          JOINT RightHandRing3
                          {
                            OFFSET -2.3881 0 0
                            CHANNELS 3 Zrotation Xrotation Yrotation
                            End Site
                            {
                              OFFSET -1.857 0 0
                            }
                          }
                        }
                      }
                    }
                    JOINT RightInHandPinky
                    {
                      OFFSET -3.16105 0.469368 -1.20179
                      CHANNELS 3 Zrotation Xrotation Yrotation
                      JOINT RightHandPinky1
                      {
                        OFFSET -4.14105 -0.022105 -1.09053
                        CHANNELS 3 Zrotation Xrotation Yrotation
                        JOINT RightHandPinky2
                        {
                          OFFSET -2.75653 0 0
                          CHANNELS 3 Zrotation Xrotation Yrotation
                          JOINT RightHandPinky3
                          {
                            OFFSET -1.74189 0 0
                            CHANNELS 3 Zrotation Xrotation Yrotation
                            End Site
                            {
                              OFFSET -1.645 0 0
                            }
                          }
                        }
                      }
                    }
                  }
                }
              }
            }
            JOINT LeftShoulder
            {
              OFFSET 3.22572 6.89245 -0.0537601
              CHANNELS 3 Zrotation Xrotation Yrotation
              JOINT LeftArm
              {
                OFFSET 12.8183 -0.0506887 -0.111983
                CHANNELS 3 Zrotation Xrotation Yrotation
                JOINT LeftForeArm
                {
                  OFFSET 26.4786 -0.0502099 0.0159937
                  CHANNELS 3 Zrotation Xrotation Yrotation
                  JOINT LeftHand
                  {
                    OFFSET 25.8931 -0.161185 0.0946899
                    CHANNELS 3 Zrotation Xrotation Yrotation
                    JOINT LeftHandThumb1
                    {
                      OFFSET 2.48905 0.190105 3.12053
                      CHANNELS 3 Zrotation Xrotation Yrotation
                      JOINT LeftHandThumb2
                      {
                        OFFSET 3.68274 0 0
                        CHANNELS 3 Zrotation Xrotation Yrotation
                        JOINT LeftHandThumb3
                        {
                          OFFSET 2.55832 0 0
                          CHANNELS 3 Zrotation Xrotation Yrotation
                          End Site
                          {
                            OFFSET 2.194 0 0
                          }
                        }
                      }
                    }
                    JOINT LeftInHandIndex
                    {
                      OFFSET 3.22368 0.508421 1.97842
                      CHANNELS 3 Zrotation Xrotation Yrotation
                      JOINT LeftHandIndex1
                      {
                        OFFSET 5.21684 -0.091368 0.999158
                        CHANNELS 3 Zrotation Xrotation Yrotation
                        JOINT LeftHandIndex2
                        {
                          OFFSET 3.61937 0 0
                          CHANNELS 3 Zrotation Xrotation Yrotation
                          JOINT LeftHandIndex3
                          {
                            OFFSET 2.0521 0 0
                            CHANNELS 3 Zrotation Xrotation Yrotation
                            End Site
                            {
                              OFFSET 1.805 0 0
                            }
                          }
                        }
                      }
                    }
                    JOINT LeftInHandMiddle
                    {
                      OFFSET 3.38211 0.517263 0.756737
                      CHANNELS 3 Zrotation Xrotation Yrotation
                      JOINT LeftHandMiddle1
                      {
                        OFFSET 5.17411 -0.084 0.313895
                        CHANNELS 3 Zrotation Xrotation Yrotation
                        JOINT LeftHandMiddle2
                        {
                          OFFSET 3.94947 0 0
                          CHANNELS 3 Zrotation Xrotation Yrotation
                          JOINT LeftHandMiddle3
                          {
                            OFFSET 2.47579 0 0
                            CHANNELS 3 Zrotation Xrotation Yrotation
                            End Site
                            {
                              OFFSET 1.975 0 0
                            }
                          }
                        }
                      }
                    }
                    JOINT LeftInHandRing
                    {
                      OFFSET 3.36516 0.537895 -0.128947
                      CHANNELS 3 Zrotation Xrotation Yrotation
                      JOINT LeftHandRing1
                      {
                        OFFSET 4.63474 -0.022105 -0.478947
                        CHANNELS 3 Zrotation Xrotation Yrotation
                        JOINT LeftHandRing2
                        {
                          OFFSET 3.44238 0 0
                          CHANNELS 3 Zrotation Xrotation Yrotation
                          JOINT LeftHandRing3
                          {
                            OFFSET 2.3881 0 0
                            CHANNELS 3 Zrotation Xrotation Yrotation
                            End Site
                            {
                              OFFSET 1.857 0 0
                            }
                          }
                        }
                      }
                    }
                    JOINT LeftInHandPinky
                    {
                      OFFSET 3.16105 0.469368 -1.20179
                      CHANNELS 3 Zrotation Xrotation Yrotation
                      JOINT LeftHandPinky1
                      {
                        OFFSET 4.14105 -0.022105 -1.09053
                        CHANNELS 3 Zrotation Xrotation Yrotation
                        JOINT LeftHandPinky2
                        {
                          OFFSET 2.75653 0 0
                          CHANNELS 3 Zrotation Xrotation Yrotation
                          JOINT LeftHandPinky3
                          {
                            OFFSET 1.74189 0 0
                            CHANNELS 3 Zrotation Xrotation Yrotation
                            End Site
                            {
                              OFFSET 1.645 0 0
                            }
                          }
                        }
                      }
                    }
                  }
                }
              }
            }
          }
        }
      }
    }
  }
}
MOTION
Frames: 2
Frame Time: 0.00833333
3.000000000000000000e+02 0.000000000000000000e+00 0.000000000000000000e+00 0.000000000000000000e+00 0.000000000000000000e+00 0.000000000000000000e+00 -1.326718489326318869e-02 5.521827581105950150e-02 -2.124043492911942554e-01 3.205254894689593681e-01 4.549932635498634553e-02 3.449413232605032520e-01 5.481365113180686199e-02 -7.434496398542947415e-02 3.872641530703559241e-03 -7.462469486868307522e-02 3.213857408136233662e-02 -5.898767049101329152e-02 1.824453969713152601e-01 9.551783603193902961e-02 1.535731066406016976e-01 1.304016766047844632e-02 1.136604892287645663e-01 -1.614180580036034957e-02 -4.384242209270319129e-02 -1.464642008923107419e-01 7.422989979029963326e-02 -8.245664754134790497e-02 -1.960187281624339688e-03 2.806260093801686839e-01 -2.748511774329725696e-02 1.197769796135457337e-01 9.983051589849260832e-02 -2.268068129039050446e-02 -5.183565070032402494e-02 1.031405651532002060e-01 -2.024175075916067289e-03 -1.482106366579504560e-03 4.529259949032150606e-04 5.048481068079750667e-02 1.336289304959368818e-01 4.818786108875808272e-02 1.875098229855714366e-02 4.747351075345752208e-02 -2.813504213784876612e-02 4.803307561158939865e-02 -2.904809975560454158e-02 -1.057970975977469419e-01 7.849754360862812308e-02 -6.389158831881530665e-02 3.506565938956297118e-02 2.778850064312378798e+00 2.247149953167969783e-01 -7.524747261894123573e-01 -3.691881386022417139e-02 2.046057294075529220e-01 -1.904163663699234565e-01 0.000000000000000000e+00 0.000000000000000000e+00 0.000000000000000000e+00 -1.651630838681040172e-15 1.630919365618567923e-15 0.000000000000000000e+00 2.039415944805625714e-15 -1.578228051864729292e-15 0.000000000000000000e+00 5.327453447749874838e-15 -1.161431412992213788e-14 8.248747595001663134e-15 0.000000000000000000e+00 0.000000000000000000e+00 0.000000000000000000e+00 0.000000000000000000e+00 8.423280330688072503e-16 -3.067551464863574446e-15 0.000000000000000000e+00 -1.114185520553616947e-15 1.040084302555183252e-14 5.327453447749874838e-15 -1.161431412992213788e-14 8.248747595001663134e-15 0.000000000000000000e+00 -2.548558409931805372e-15 -4.818155856525935792e-16 0.000000000000000000e+00 5.657919769918832806e-15 -5.188629019647681549e-15 0.000000000000000000e+00 1.538205895530049399e-15 -4.594514389658258144e-15 5.327453447749874838e-15 -1.161431412992213788e-14 8.248747595001663134e-15 0.000000000000000000e+00 0.000000000000000000e+00 0.000000000000000000e+00 0.000000000000000000e+00 -1.769412827586518493e-15 -3.101971115196430301e-15 0.000000000000000000e+00 2.037647156721705499e-15 1.347610446219791538e-14 5.327453447749874838e-15 -1.161431412992213788e-14 8.248747595001663134e-15 0.000000000000000000e+00 0.000000000000000000e+00 0.000000000000000000e+00 0.000000000000000000e+00 3.181403913108850313e-16 -1.929884683850379887e-14 0.000000000000000000e+00 -2.895324272491968508e-15 2.398517187812888944e-15 -3.671393575696642320e-02 8.118070477252239264e-03 -4.325514172394982759e-02 1.587241226473515010e-01 5.691066257471338874e-02 -2.183336360314938884e-01 1.872886499451666964e-01 -3.839964437497539462e-01 -4.243937984243915246e-02 1.070279236616773044e+00 -3.543096585239026708e-01 1.283505047867011140e+00 0.000000000000000000e+00 0.000000000000000000e+00 0.000000000000000000e+00 4.932817203421225125e-15 5.284844021341941709e-15 0.000000000000000000e+00 9.327905386838014936e-15 4.750850735297525343e-15 0.000000000000000000e+00 -3.458015498061798884e-15 -2.912146346315186994e-15 -3.027021977235190111e-15 0.000000000000000000e+00 0.000000000000000000e+00 0.000000000000000000e+00 0.000000000000000000e+00 2.973133808171896460e-15 -1.552520349950182219e-15 0.000000000000000000e+00 -1.111556374852606392e-16 6.026434426596365929e-16 -3.458015498061798884e-15 -2.912146346315186994e-15 -3.027021977235190111e-15 0.000000000000000000e+00 -6.161859476959429909e-16 -8.364486820978334392e-15 0.000000000000000000e+00 2.646538416731070155e-15 -1.015534344345607539e-14 0.000000000000000000e+00 -2.165161038282152160e-16 -2.200301717445383496e-14 -3.458015498061798884e-15 -2.912146346315186994e-15 -3.027021977235190111e-15 0.000000000000000000e+00 0.000000000000000000e+00 0.000000000000000000e+00 0.000000000000000000e+00 -2.010758557361467567e-15 -1.320539682959381882e-14 0.000000000000000000e+00 3.370614386974284314e-15 -2.690285065853483089e-15 -3.458015498061798884e-15 -2.912146346315186994e-15 -3.027021977235190111e-15 0.000000000000000000e+00 0.000000000000000000e+00 0.000000000000000000e+00 0.000000000000000000e+00 5.890872859240711410e-16 -5.124830862383144787e-15 0.000000000000000000e+00 2.818720344743254287e-15 -1.727476205200517903e-15
3.000000000000000000e+02 0.000000000000000000e+00 0.000000000000000000e+00 0.000000000000000000e+00 0.000000000000000000e+00 0.000000000000000000e+00 -2.774490914336271222e-02 4.779428745734862899e-02 -2.175962051657484297e-01 3.393668121719411457e-01 5.518470374541058210e-02 3.831230421093134164e-01 4.418331415525528216e-02 -1.003903200597613954e-01 1.319846597292891922e-02 -8.196804164451701458e-02 3.324027067440747663e-02 -8.455813843315783396e-02 1.849045631632351694e-01 8.260214148987668481e-02 1.909966161335461821e-01 2.004384389620762069e-02 1.393397798377133956e-01 -5.394049761511813396e-02 -4.823378417275665797e-02 -1.596206555193974697e-01 7.976176524997541373e-02 -8.392341623720429855e-02 1.128319527669901720e-02 2.945358912753480163e-01 -2.972521100025724006e-02 1.559264172600642873e-01 1.100837909779512347e-01 -2.240884501500740172e-02 -7.533749712592219261e-02 1.013873617516250214e-01 -3.268895527301060415e-03 -4.494651945069605805e-04 2.412707877931755552e-04 2.062914343760055558e-02 1.684453392939968819e-01 1.535073533969356224e-02 8.625102738059116370e-03 5.108097448728855100e-02 -4.975178308069329314e-02 3.787224286955492847e-02 -3.544096015291098994e-02 -1.252913245437648482e-01 5.725532135188872440e-02 -5.434284303149004847e-02 5.246027093985128169e-03 3.699893449727398309e+00 2.151166156634791715e-01 -7.796076601006122209e-01 -4.400496758161628885e-02 1.974753906599138187e-01 -1.930577665275682586e-01 0.000000000000000000e+00 0.000000000000000000e+00 0.000000000000000000e+00 1.015110460672869123e-15 2.199999421101065979e-15 0.000000000000000000e+00 -4.574530536077993915e-15 -6.210977595172544628e-15 0.000000000000000000e+00 1.364366698269810037e-15 -1.109699133620614411e-14 5.254387736560379675e-15 0.000000000000000000e+00 0.000000000000000000e+00 0.000000000000000000e+00 0.000000000000000000e+00 5.522568523824606365e-17 -9.241245329556584527e-15 0.000000000000000000e+00 9.025650854761943458e-17 6.650409786285791964e-15 1.364366698269810037e-15 -1.109699133620614411e-14 5.254387736560379675e-15 0.000000000000000000e+00 -3.411783626539857406e-15 6.911822447241200296e-15 0.000000000000000000e+00 2.114294790214276131e-15 1.249844218168645250e-15 0.000000000000000000e+00 -6.809213312385555863e-17 2.992257416024010386e-15 1.364366698269810037e-15 -1.109699133620614411e-14 5.254387736560379675e-15 0.000000000000000000e+00 0.000000000000000000e+00 0.000000000000000000e+00 0.000000000000000000e+00 -2.941473316327211383e-15 -5.967260549135626723e-15 0.000000000000000000e+00 -3.550921015764295912e-16 2.977981090748269009e-15 1.364366698269810037e-15 -1.109699133620614411e-14 5.254387736560379675e-15 0.000000000000000000e+00 0.000000000000000000e+00 0.000000000000000000e+00 0.000000000000000000e+00 -2.030371117958443845e-15 -1.589467971956488544e-14 0.000000000000000000e+00 -2.790645530903830394e-15 -4.758337150550326375e-15 -3.973457488369708940e-02 2.210982047254743746e-02 -1.024312121540778830e-01 7.156843117119957021e-02 3.372728738478036892e-02 -1.201764200548506717e-01 1.639275949262766208e-01 -3.623460731208595909e-01 -4.117860230132033839e-02 3.044131274137083509e-01 -3.799416338613090249e-01 4.473400786418582631e-01 0.000000000000000000e+00 0.000000000000000000e+00 0.000000000000000000e+00 -8.169980142723351527e-17 5.920744676193100832e-15 0.000000000000000000e+00 4.621613360077048793e-15 -4.709598847019894381e-16 0.000000000000000000e+00 -3.885395599092022272e-15 -1.803692186189285843e-15 -2.179531042739237795e-15 0.000000000000000000e+00 0.000000000000000000e+00 0.000000000000000000e+00 0.000000000000000000e+00 1.379545823020451245e-15 2.432713096598045113e-15 0.000000000000000000e+00 7.701280805370514786e-16 1.607380263474108571e-15 -3.885395599092022272e-15 -1.803692186189285843e-15 -2.179531042739237795e-15 0.000000000000000000e+00 -4.005510695520200670e-15 -3.682617565623468641e-15 0.000000000000000000e+00 7.093933104268630404e-15 -9.521632284401952764e-16 0.000000000000000000e+00 2.847610479000199712e-15 -2.277253939707005461e-14 -3.885395599092022272e-15 -1.803692186189285843e-15 -2.179531042739237795e-15 0.000000000000000000e+00 0.000000000000000000e+00 0.000000000000000000e+00 0.000000000000000000e+00 1.268311131314546658e-15 -4.471380722745374359e-15 0.000000000000000000e+00 4.988952890233129119e-15 -7.879047665989801659e-15 -3.885395599092022272e-15 -1.803692186189285843e-15 -2.179531042739237795e-15 0.000000000000000000e+00 0.000000000000000000e+00 0.000000000000000000e+00 0.000000000000000000e+00 -3.487431679191428265e-15 -4.467968224165714343e-15 0.000000000000000000e+00 4.472511442404641618e-15 -3.576740065469875339e-15
